<svg xmlns="http://www.w3.org/2000/svg" viewBox="0 0 96 105">
  <path d="M71.8531 31.0488C71.0435 31.0593 70.27 31.3929 69.6975 31.9783C69.125 32.5637 68.7987 33.3546 68.7883 34.1825L68.819 44.8327C68.8255 45.665 69.1494 46.4618 69.7219 47.0534C70.2943 47.645 71.07 47.9846 71.8838 48C72.7005 47.9945 73.4818 47.658 74.0563 47.0642C74.6308 46.4705 74.9515 45.668 74.9481 44.8327L74.9171 34.1825C74.9161 33.3517 74.5929 32.5553 74.0184 31.9678C73.444 31.3804 72.6651 31.0499 71.8527 31.0488" fill="#7C00B3"></path><path d="M38.8422 31.0451C37.9624 31.0346 37.0904 31.2146 36.2835 31.5734C35.4766 31.9321 34.7531 32.4615 34.1606 33.1267C33.6248 32.4614 32.9474 31.9301 32.1801 31.5732C31.4129 31.2164 30.5761 31.0434 29.7335 31.0676C29.0059 31.0407 28.2808 31.1685 27.604 31.4431C26.9273 31.7176 26.3137 32.133 25.8021 32.6627C25.5104 32.1963 25.1129 31.8089 24.6433 31.5334C24.1738 31.2578 23.6461 31.1024 23.1052 31.0802C22.2874 31.1005 21.5097 31.4462 20.9374 32.0438C20.3651 32.6415 20.0434 33.4439 20.0408 34.2803V44.8327C20.0471 45.6649 20.371 46.4617 20.9434 47.0533C21.5158 47.6449 22.2915 47.9846 23.1052 48C23.9219 47.9945 24.7032 47.658 25.2777 47.0642C25.8522 46.4705 26.1729 45.668 26.1695 44.8327V37.8278C26.331 37.4971 26.5801 37.2196 26.8885 37.0269C27.1969 36.8342 27.5521 36.7341 27.9135 36.7381C28.5015 36.7381 29.2354 36.9621 29.2354 38.3538V44.8327C29.232 45.668 29.5527 46.4705 30.1272 47.0642C30.7017 47.658 31.483 47.9945 32.2998 48C33.1134 47.9845 33.889 47.6448 34.4614 47.0532C35.0338 46.4616 35.3577 45.6649 35.3641 44.8327V37.799C35.5284 37.4741 35.7794 37.2036 36.0882 37.0189C36.3969 36.8343 36.7506 36.7432 37.1081 36.7562C37.6965 36.7562 38.3975 36.9677 38.3975 38.387V44.8327C38.394 45.668 38.7147 46.4706 39.2892 47.0643C39.8637 47.6581 40.6451 47.9946 41.4619 48C42.2755 47.9845 43.0512 47.6448 43.6235 47.0532C44.1959 46.4616 44.5198 45.6649 44.5263 44.8327V37.2903C44.4043 32.7358 40.9717 31.0632 38.8411 31.0451" fill="#7C00B3"></path><path d="M55.3431 24.0217H49.3299C48.9284 24.0217 48.5308 24.1025 48.1599 24.2596C47.789 24.4167 47.4519 24.647 47.168 24.9373C46.8841 25.2276 46.6589 25.5723 46.5053 25.9516C46.3517 26.3309 46.2727 26.7375 46.2727 27.148V44.8736C46.2727 45.2842 46.3517 45.6908 46.5053 46.0701C46.6589 46.4494 46.8841 46.7941 47.168 47.0844C47.4519 47.3747 47.789 47.605 48.1599 47.7621C48.5308 47.9192 48.9284 48 49.3299 47.9999H55.3431C58.4525 47.9999 61.4346 46.7368 63.6333 44.4884C65.8319 42.24 67.0671 39.1905 67.0671 36.0108C67.0671 32.8311 65.8319 29.7817 63.6333 27.5333C61.4346 25.2849 58.4525 24.0217 55.3431 24.0217ZM55.3431 41.747H52.3874V30.2754H55.3435C56.8312 30.2754 58.258 30.8798 59.31 31.9556C60.362 33.0313 60.953 34.4904 60.953 36.0118C60.953 37.5331 60.362 38.9922 59.31 40.068C58.258 41.1437 56.8312 41.7481 55.3435 41.7481L55.3431 41.747Z" fill="#7C00B3"></path><path d="M79.3925 24H71.7541C70.9714 24 70.2207 24.318 69.6672 24.884C69.1137 25.45 68.8027 26.2177 68.8027 27.0181C68.8027 27.8186 69.1137 28.5863 69.6672 29.1523C70.2207 29.7183 70.9714 30.0363 71.7541 30.0363H79.3925C80.1753 30.0363 80.926 29.7183 81.4795 29.1523C82.033 28.5863 82.3439 27.8186 82.3439 27.0181C82.3439 26.2177 82.033 25.45 81.4795 24.884C80.926 24.318 80.1753 24 79.3925 24Z" fill="#7C00B3"></path><path d="M79.2584 29.6047C78.7593 29.5995 78.2728 29.4435 77.8602 29.1561C77.4476 28.8688 77.1274 28.463 76.9399 27.9899C76.7524 27.5169 76.7059 26.9976 76.8064 26.4976C76.9069 25.9976 77.1498 25.5392 77.5045 25.18C77.8593 24.8209 78.31 24.5772 78.7999 24.4795C79.2899 24.3818 79.7971 24.4345 80.2578 24.631C80.7185 24.8275 81.1121 25.1591 81.3889 25.5838C81.6657 26.0086 81.8134 26.5077 81.8135 27.0181C81.8154 27.3606 81.7504 27.6999 81.6224 28.0164C81.4943 28.3328 81.3058 28.6199 81.0678 28.8608C80.8298 29.1017 80.5472 29.2916 80.2365 29.4194C79.9258 29.5471 79.5933 29.6101 79.2584 29.6047Z" fill="#FCC94F"></path><path d="M91.9555 30.0288C91.5226 30.0337 91.0958 30.1327 90.7032 30.319C90.3106 30.5053 89.9611 30.7748 89.678 31.1097C88.3393 30.3697 86.8355 29.998 85.3141 30.031C83.7926 30.0639 82.3057 30.5003 80.9987 31.2976C79.6918 32.0948 78.6098 33.2255 77.8586 34.5788C77.1073 35.9322 76.7127 37.4619 76.7134 39.0181C76.714 40.5743 77.1099 42.1036 77.8622 43.4564C78.6145 44.8091 79.6975 45.9388 81.0051 46.7349C82.3127 47.531 83.8 47.9662 85.3215 47.9978C86.8429 48.0295 88.3464 47.6565 89.6845 46.9154C89.9661 47.2507 90.3143 47.5208 90.7059 47.7077C91.0976 47.8947 91.5237 47.9941 91.9558 47.9996C92.7726 47.9942 93.554 47.6577 94.1285 47.0639C94.703 46.4701 95.0237 45.6676 95.0202 44.8323V33.1625C95.0192 32.3316 94.6959 31.5352 94.1214 30.9477C93.5469 30.3602 92.7679 30.0298 91.9555 30.0288ZM85.5022 41.747C84.9738 41.747 84.4574 41.5868 84.0181 41.2866C83.5788 40.9864 83.2364 40.5598 83.0342 40.0607C82.832 39.5615 82.7791 39.0123 82.8822 38.4824C82.9853 37.9525 83.2397 37.4657 83.6133 37.0837C83.9869 36.7017 84.4628 36.4415 84.981 36.3361C85.4992 36.2307 86.0363 36.2848 86.5244 36.4915C87.0125 36.6983 87.4297 37.0484 87.7233 37.4976C88.0168 37.9469 88.1734 38.475 88.1734 39.0153C88.1724 39.7394 87.8906 40.4336 87.3899 40.9457C86.8891 41.4577 86.2103 41.7459 85.5022 41.747Z" fill="#7C00B3"></path><path d="M15.4284 32.3863C13.8974 30.923 11.8988 30.0783 9.80431 30.0093C8.02165 29.9305 6.25798 30.4105 4.74946 31.385C3.24094 32.3595 2.05957 33.7821 1.36355 35.4622C0.667529 37.1424 0.490076 38.9998 0.85495 40.786C1.21982 42.5721 2.10961 44.2016 3.40516 45.4562C5.09131 47.1805 7.17924 47.9997 10.0187 47.9997C12.1893 47.9997 13.6037 47.6619 15.0808 46.7139C15.5231 46.4582 15.8946 46.0918 16.1604 45.649C16.4262 45.2063 16.5777 44.7017 16.6005 44.1827C16.6153 43.7461 16.5154 43.3135 16.3111 42.9299C16.1069 42.5463 15.8058 42.2256 15.4393 42.0014C14.9972 41.7593 14.4987 41.6458 13.998 41.6731C13.4972 41.7005 13.0134 41.8676 12.599 42.1564C11.115 43.1483 9.94401 43.0616 9.94401 43.0616C9.17791 43.0694 8.42351 42.8691 7.75794 42.481C7.09236 42.093 6.5395 41.5312 6.15586 40.853H16.1955C16.4737 40.8442 16.746 40.7693 16.9909 40.6341C17.2358 40.4989 17.4465 40.3071 17.6063 40.0741C18.0008 39.4719 18.2026 38.7592 18.1838 38.0346C18.1102 35.8828 16.9031 33.737 15.4284 32.3863ZM6.50204 36.799C6.70383 36.2782 7.42904 34.2457 9.71479 34.3221C12.1821 34.4044 12.7236 36.799 12.7236 36.799H6.50204Z" fill="#7C00B3"></path>
</svg>
